solid OpenSCAD_Model
  facet normal -1 0 0
    outer loop
      vertex 0 0 -6.8
      vertex 0 0 0
      vertex 0 18 0
    endloop
  endfacet
  facet normal 0 0 1
    outer loop
      vertex 0 0 0
      vertex 1 1 0
      vertex 0 18 0
    endloop
  endfacet
  facet normal 0 -1 0
    outer loop
      vertex 0 0 -6.8
      vertex 52 0 0
      vertex 0 0 0
    endloop
  endfacet
  facet normal 0 0 1
    outer loop
      vertex 0 0 0
      vertex 52 0 0
      vertex 1 1 0
    endloop
  endfacet
  facet normal -1 0 0
    outer loop
      vertex 0 0 -6.8
      vertex 0 18 0
      vertex 0 18 -6.8
    endloop
  endfacet
  facet normal 0 0 -1
    outer loop
      vertex 0 0 -6.8
      vertex 0 18 -6.8
      vertex 52 18 -6.8
    endloop
  endfacet
  facet normal 0 1 0
    outer loop
      vertex 0 18 -6.8
      vertex 0 18 0
      vertex 52 18 -6.8
    endloop
  endfacet
  facet normal 0 0 1
    outer loop
      vertex 0 18 0
      vertex 1 1 0
      vertex 1 17 0
    endloop
  endfacet
  facet normal 0 0 1
    outer loop
      vertex 0 18 0
      vertex 1 17 0
      vertex 51 17 0
    endloop
  endfacet
  facet normal 0 -1 0
    outer loop
      vertex 0 0 -6.8
      vertex 52 0 -6.8
      vertex 52 0 0
    endloop
  endfacet
  facet normal 0 0 -1
    outer loop
      vertex 0 0 -6.8
      vertex 52 18 -6.8
      vertex 52 0 -6.8
    endloop
  endfacet
  facet normal 1 0 0
    outer loop
      vertex 52 0 -6.8
      vertex 52 18 -6.8
      vertex 52 0 0
    endloop
  endfacet
  facet normal 0 0 1
    outer loop
      vertex 52 0 0
      vertex 51 1 0
      vertex 1 1 0
    endloop
  endfacet
  facet normal 0 0 1
    outer loop
      vertex 52 0 0
      vertex 51 17 0
      vertex 51 1 0
    endloop
  endfacet
  facet normal 0 1 0
    outer loop
      vertex 0 18 0
      vertex 52 18 0
      vertex 52 18 -6.8
    endloop
  endfacet
  facet normal 0 0 1
    outer loop
      vertex 0 18 0
      vertex 51 17 0
      vertex 52 18 0
    endloop
  endfacet
  facet normal 1 0 0
    outer loop
      vertex 52 0 0
      vertex 52 18 -6.8
      vertex 52 18 0
    endloop
  endfacet
  facet normal 0 0 1
    outer loop
      vertex 52 0 0
      vertex 52 18 0
      vertex 51 17 0
    endloop
  endfacet
  facet normal 1 0 0
    outer loop
      vertex 1 1 -1.6
      vertex 1 1.5 -1.6
      vertex 1 1.5 -1.5900000000000007
    endloop
  endfacet
  facet normal 1 0 0
    outer loop
      vertex 1 1 -1.6
      vertex 1 1.5 -1.5900000000000007
      vertex 1 17 0
    endloop
  endfacet
  facet normal 1 0 0
    outer loop
      vertex 1 1 -1.6
      vertex 1 17 0
      vertex 1 1 0
    endloop
  endfacet
  facet normal 0 1 0
    outer loop
      vertex 1 1 -1.6
      vertex 1 1 0
      vertex 51 1 -1.6
    endloop
  endfacet
  facet normal 0 0 1
    outer loop
      vertex 1 1 -1.6
      vertex 51 1 -1.6
      vertex 1 1.5 -1.6
    endloop
  endfacet
  facet normal 1 0 0
    outer loop
      vertex 1 1.5 -1.5900000000000007
      vertex 1 16.5 -1.5900000000000007
      vertex 1 17 0
    endloop
  endfacet
  facet normal 1 0 0
    outer loop
      vertex 1 16.5 -1.6
      vertex 1 17 -1.6
      vertex 1 16.5 -1.5900000000000007
    endloop
  endfacet
  facet normal 1 0 0
    outer loop
      vertex 1 16.5 -1.5900000000000007
      vertex 1 17 -1.6
      vertex 1 17 0
    endloop
  endfacet
  facet normal 0 0 1
    outer loop
      vertex 1 16.5 -1.6
      vertex 51 16.5 -1.6
      vertex 1 17 -1.6
    endloop
  endfacet
  facet normal 0 -1 0
    outer loop
      vertex 1 17 -1.6
      vertex 51 17 0
      vertex 1 17 0
    endloop
  endfacet
  facet normal 0 0 1
    outer loop
      vertex 1 1.5 -1.6
      vertex 51 1 -1.6
      vertex 51 1.5 -1.6
    endloop
  endfacet
  facet normal 0 1 0
    outer loop
      vertex 51 1 -1.6
      vertex 1 1 0
      vertex 51 1 0
    endloop
  endfacet
  facet normal -1 0 0
    outer loop
      vertex 51 1 -1.6
      vertex 51 1.5 -1.5900000000000007
      vertex 51 1.5 -1.6
    endloop
  endfacet
  facet normal -1 0 0
    outer loop
      vertex 51 1 -1.6
      vertex 51 1 0
      vertex 51 1.5 -1.5900000000000007
    endloop
  endfacet
  facet normal -1 0 0
    outer loop
      vertex 51 1.5 -1.5900000000000007
      vertex 51 1 0
      vertex 51 16.5 -1.5900000000000007
    endloop
  endfacet
  facet normal 0 0 1
    outer loop
      vertex 1 17 -1.6
      vertex 51 16.5 -1.6
      vertex 51 17 -1.6
    endloop
  endfacet
  facet normal 0 -1 0
    outer loop
      vertex 1 17 -1.6
      vertex 51 17 -1.6
      vertex 51 17 0
    endloop
  endfacet
  facet normal -1 0 0
    outer loop
      vertex 51 16.5 -1.5900000000000007
      vertex 51 1 0
      vertex 51 17 -1.6
    endloop
  endfacet
  facet normal -1 0 0
    outer loop
      vertex 51 17 -1.6
      vertex 51 1 0
      vertex 51 17 0
    endloop
  endfacet
  facet normal -1 0 0
    outer loop
      vertex 51 16.5 -1.6
      vertex 51 16.5 -1.5900000000000007
      vertex 51 17 -1.6
    endloop
  endfacet
  facet normal 0 1 0
    outer loop
      vertex 1 1.5 -5.8
      vertex 1 1.5 -1.6
      vertex 51 1.5 -5.8
    endloop
  endfacet
  facet normal 1 0 0
    outer loop
      vertex 1 1.5 -5.8
      vertex 1 16.5 -1.5900000000000007
      vertex 1 1.5 -1.6
    endloop
  endfacet
  facet normal 1 0 0
    outer loop
      vertex 1 1.5 -1.6
      vertex 1 16.5 -1.5900000000000007
      vertex 1 1.5 -1.5900000000000007
    endloop
  endfacet
  facet normal 1 0 0
    outer loop
      vertex 1 1.5 -5.8
      vertex 1 16.5 -5.8
      vertex 1 16.5 -1.6
    endloop
  endfacet
  facet normal 0 0 1
    outer loop
      vertex 1 1.5 -5.8
      vertex 51 16.5 -5.8
      vertex 1 16.5 -5.8
    endloop
  endfacet
  facet normal 1 0 0
    outer loop
      vertex 1 1.5 -5.8
      vertex 1 16.5 -1.6
      vertex 1 16.5 -1.5900000000000007
    endloop
  endfacet
  facet normal 0 -1 0
    outer loop
      vertex 1 16.5 -5.8
      vertex 51 16.5 -1.6
      vertex 1 16.5 -1.6
    endloop
  endfacet
  facet normal 0 0 1
    outer loop
      vertex 1 1.5 -5.8
      vertex 51 1.5 -5.8
      vertex 51 16.5 -5.8
    endloop
  endfacet
  facet normal -1 0 0
    outer loop
      vertex 51 1.5 -5.8
      vertex 51 1.5 -1.6
      vertex 51 16.5 -5.8
    endloop
  endfacet
  facet normal 0 1 0
    outer loop
      vertex 1 1.5 -1.6
      vertex 51 1.5 -1.6
      vertex 51 1.5 -5.8
    endloop
  endfacet
  facet normal -1 0 0
    outer loop
      vertex 51 1.5 -1.6
      vertex 51 1.5 -1.5900000000000007
      vertex 51 16.5 -5.8
    endloop
  endfacet
  facet normal 0 -1 0
    outer loop
      vertex 1 16.5 -5.8
      vertex 51 16.5 -5.8
      vertex 51 16.5 -1.6
    endloop
  endfacet
  facet normal -1 0 0
    outer loop
      vertex 51 1.5 -1.5900000000000007
      vertex 51 16.5 -1.6
      vertex 51 16.5 -5.8
    endloop
  endfacet
  facet normal -1 0 0
    outer loop
      vertex 51 1.5 -1.5900000000000007
      vertex 51 16.5 -1.5900000000000007
      vertex 51 16.5 -1.6
    endloop
  endfacet
endsolid OpenSCAD_Model
